<svg width="150" height="53" viewBox="0 0 150 53" fill="none" xmlns="http://www.w3.org/2000/svg">
<g clip-path="url(#clip0_2943_1794)">
<path d="M17.5365 0.271288C18.7711 0.271288 19.9916 0.474717 21.1911 0.874574V7.39114C20.6579 7.0895 19.8232 6.94222 18.6869 6.94222C15.0463 6.94222 13.2225 8.47843 13.2225 11.5508V12.7994H21.1911V19.4141H13.2225V39.2023H4.76293V19.4141H0V12.7994H4.76293V11.5508C4.76293 7.53843 5.745 4.66243 7.71607 2.90879C9.68714 1.14815 12.9629 0.271288 17.5365 0.271288ZM91.5614 19.4071H105.99V20.2068L91.358 32.0825V39.1953H116.912V32.5314H101.88V31.7318L116.912 19.9052V12.7924L91.5614 12.7924V19.4071ZM78.1776 12.8064H69.7531V39.2233L78.1776 39.2234V29.7466C78.4091 26.3025 79.784 23.6439 81.3833 22.1849C82.8283 20.8662 85.3816 19.4001 89.0572 19.4001V12.7924C84.0137 12.7924 80.4152 14.6934 78.1776 16.7346V12.7994L78.1776 12.8064ZM142.102 0.194145L133.172 32.5314L127.441 12.7924H119.43L125.168 32.5384H133.172L133.102 32.7839C133.102 32.7839 132.022 37.0699 126.95 38.5639C125.463 39.0059 122.356 39.1531 119.606 39.1812H116.912V45.8731H119.669C132.05 45.8521 136.911 44.8209 140.257 35.4214L150 0.194145L142.102 0.194145ZM67.2208 25.8465C67.2208 30.6866 65.867 34.2359 63.1664 36.4876C60.4657 38.7394 51.3257 39.8686 45.5527 39.8686C39.7797 39.8686 30.5345 38.7393 27.8199 36.4876C25.0982 34.2359 23.7444 30.6866 23.7444 25.8465C23.7444 21.0064 25.1052 17.5693 27.8199 15.3316C30.5415 13.094 39.7236 11.9716 45.5527 11.9716C51.3818 11.9716 60.4657 13.101 63.1664 15.3526C65.867 17.6044 67.2208 21.1046 67.2208 25.8465ZM58.8664 25.8465C58.8664 23.195 58.2351 21.3221 56.9795 20.2278C55.7169 19.1335 48.6391 18.5864 45.5597 18.5864C42.4803 18.5864 35.3394 19.1335 34.0628 20.2278C32.7861 21.3221 32.1478 23.1949 32.1478 25.8465C32.1478 28.4981 32.7861 30.5182 34.0628 31.6125C35.3394 32.7068 42.4382 33.2539 45.5597 33.2539C48.6812 33.2539 55.7169 32.6998 56.9795 31.5844C58.2421 30.4761 58.8664 28.5611 58.8664 25.8395V25.8465Z" fill="white"/>
<path d="M7.9125 49.4155V47.1919L9.21722 47.1919V51.2884H7.9125V50.5799C7.76522 50.8746 7.56179 51.092 7.30922 51.2183C7.05665 51.3446 6.734 51.4147 6.34122 51.4147C5.766 51.4147 5.35915 51.2884 5.12065 51.0359C4.87515 50.7764 4.75586 50.3415 4.75586 49.7312V47.1919H6.06064V49.6962C6.06064 50.1732 6.35529 50.4117 6.9515 50.4117C7.58279 50.4117 7.9055 50.0819 7.9125 49.4156V49.4155ZM100.288 47.0587C100.856 47.0587 101.263 47.1849 101.508 47.4444C101.754 47.704 101.873 48.1389 101.873 48.7422V51.2814H100.568V48.7772C100.568 48.3002 100.274 48.0617 99.6774 48.0617C99.0461 48.0617 98.7234 48.3914 98.7164 49.0578V51.2814H97.4117V47.1849H98.7164V47.8934C98.8637 47.5988 99.0671 47.3814 99.3197 47.2551C99.5722 47.1218 99.8949 47.0587 100.295 47.0587H100.288ZM94.0026 51.4217C93.0906 51.4217 92.4243 51.2464 91.9964 50.8957C91.5686 50.5449 91.3581 49.9908 91.3581 49.2332C91.3581 48.4757 91.5685 47.9425 91.9964 47.5918C92.4243 47.2411 93.0907 47.0657 94.0026 47.0657C94.9144 47.0657 95.5669 47.2411 95.9877 47.5918C96.4086 47.9425 96.619 48.4897 96.619 49.2332C96.619 49.9768 96.4086 50.5449 95.9877 50.8957C95.5669 51.2464 94.9004 51.4217 94.0026 51.4217ZM94.0026 50.3906C94.4866 50.3906 94.8233 50.3064 95.0197 50.131C95.2161 49.9557 95.3144 49.661 95.3144 49.2332C95.3144 48.8053 95.2161 48.5247 95.0197 48.3563C94.8233 48.1879 94.4866 48.0967 94.0026 48.0967C93.5186 48.0967 93.1749 48.1809 92.9714 48.3563C92.768 48.5247 92.6698 48.8192 92.6698 49.2332C92.6698 49.6471 92.768 49.9627 92.9714 50.138C93.1679 50.3064 93.5116 50.3976 94.0026 50.3976V50.3906ZM89.1485 47.0587C89.6746 47.0587 90.0534 47.1849 90.2849 47.4444C90.5094 47.6969 90.6216 48.1319 90.6216 48.7492V51.2814H89.3099V48.8264C89.3099 48.5668 89.2467 48.3774 89.1204 48.2582C88.9941 48.1389 88.7978 48.0758 88.5312 48.0758C87.9279 48.0758 87.6264 48.3774 87.6264 48.9877V51.2885L86.3216 51.2884V48.8334C86.3216 48.3283 86.0621 48.0828 85.536 48.0828C84.9398 48.0828 84.6381 48.3914 84.6311 49.0157V51.2954H83.3264V47.1989H84.6311V47.9144C84.9186 47.3462 85.4237 47.0657 86.1532 47.0657C86.5601 47.0657 86.8687 47.1358 87.0861 47.2902C87.3036 47.4374 87.4579 47.6759 87.5421 47.9987C87.8226 47.3744 88.3558 47.0657 89.1414 47.0657L89.1485 47.0587ZM79.9314 51.4217C79.0194 51.4217 78.3531 51.2464 77.9252 50.8957C77.4974 50.5449 77.2869 49.9908 77.2869 49.2332C77.2869 48.4757 77.4973 47.9425 77.9252 47.5918C78.3531 47.2411 79.0195 47.0657 79.9314 47.0657C80.8432 47.0657 81.4956 47.2411 81.9165 47.5918C82.3374 47.9425 82.5478 48.4897 82.5478 49.2332C82.5478 49.9768 82.3374 50.5449 81.9165 50.8957C81.4956 51.2464 80.8292 51.4217 79.9314 51.4217ZM79.9314 50.3906C80.4154 50.3906 80.7521 50.3064 80.9485 50.131C81.1449 49.9557 81.2431 49.661 81.2431 49.2332C81.2431 48.8053 81.1449 48.5247 80.9485 48.3563C80.7521 48.1879 80.4154 48.0967 79.9314 48.0967C79.4474 48.0967 79.1036 48.1809 78.9002 48.3563C78.6968 48.5247 78.5986 48.8192 78.5986 49.2332C78.5986 49.6471 78.6968 49.9627 78.9002 50.138C79.0966 50.3064 79.4404 50.3976 79.9314 50.3976V50.3906ZM75.0491 47.1919V48.2722C75.3929 47.4655 75.954 47.0587 76.7326 47.0587V48.3774C76.1644 48.3774 75.7506 48.4826 75.4911 48.693C75.2315 48.9034 75.0842 49.2752 75.0491 49.8154V51.2814H73.7444V47.1849H75.0491V47.1919ZM69.1499 51.2884H67.8101V45.8732H70.3003C72.1101 45.8732 73.0149 46.5325 73.0149 47.8583C73.0149 49.1841 72.1101 49.8855 70.3003 49.8855H69.1499V51.2954V51.2884ZM69.1499 46.9674V48.7772H70.3073C70.7843 48.7772 71.128 48.7001 71.3454 48.5527C71.5629 48.4054 71.6751 48.1739 71.6751 47.8513C71.6751 47.5287 71.5629 47.3252 71.3454 47.1779C71.128 47.0376 70.7843 46.9674 70.3073 46.9674H69.1499ZM62.2476 47.0587C63.0051 47.0587 63.5593 47.1919 63.9241 47.4655C64.2818 47.7391 64.4642 48.1599 64.4642 48.7352V51.2814H63.1524V50.6291C62.8298 51.1552 62.3177 51.4147 61.6232 51.4147C61.0691 51.4147 60.6482 51.3095 60.3676 51.0921C60.0869 50.8747 59.9467 50.566 59.9467 50.1522C59.9467 49.2683 60.6411 48.8264 62.023 48.8264C62.4579 48.8264 62.8367 48.8684 63.1594 48.9456V48.7352C63.1594 48.4897 63.0892 48.3143 62.9419 48.202C62.7946 48.0897 62.5701 48.0337 62.2615 48.0337C61.7144 48.0337 61.4127 48.1739 61.3776 48.4545L60.1782 48.4546C60.2273 47.5217 60.9218 47.0587 62.2616 47.0587H62.2476ZM62.0441 50.5028C62.3809 50.5028 62.6474 50.4327 62.8438 50.2924C63.0402 50.1521 63.1384 49.9487 63.1454 49.6821V49.6681C62.8719 49.5979 62.5281 49.5699 62.1143 49.5699C61.483 49.5699 61.1673 49.7242 61.1673 50.0258C61.1673 50.3484 61.4619 50.5098 62.0441 50.5098V50.5028ZM57.2251 51.4217C55.8783 51.4217 55.1839 50.9517 55.1347 50.0118H56.3272C56.3553 50.3415 56.6849 50.5028 57.3093 50.5028C57.8494 50.5028 58.1159 50.3625 58.1159 50.0889C58.1159 49.9977 58.0879 49.9276 58.0318 49.8785C57.9756 49.8294 57.8845 49.7944 57.7512 49.7733L56.5096 49.5418C56.0888 49.4647 55.7801 49.3314 55.5837 49.156C55.3873 48.9737 55.2891 48.7282 55.2891 48.4195C55.2891 47.9566 55.4574 47.6199 55.7871 47.3954C56.1169 47.1709 56.6429 47.0657 57.3514 47.0657C58.593 47.0657 59.2454 47.5146 59.3085 48.4124H58.13C58.1019 48.2582 58.0178 48.1459 57.8985 48.0757C57.7722 48.0056 57.5829 47.9775 57.3303 47.9775C56.8252 47.9775 56.5727 48.1038 56.5727 48.3563C56.5727 48.4966 56.699 48.5878 56.9515 48.6369L58.158 48.8614C58.5859 48.9385 58.9086 49.0718 59.112 49.2612C59.3154 49.4507 59.4206 49.7032 59.4206 50.0258C59.4206 50.5028 59.2453 50.8535 58.8946 51.085C58.5439 51.3165 57.9897 51.4287 57.2391 51.4287L57.2251 51.4217ZM54.5455 49.2192V49.5348H50.7436C50.7857 49.8785 50.905 50.117 51.1014 50.2573C51.2978 50.3976 51.6064 50.4677 52.0343 50.4677C52.7638 50.4677 53.1636 50.3064 53.2338 49.9907H54.4684C54.3771 50.9377 53.5635 51.4147 52.0133 51.4147C51.1294 51.4147 50.4771 51.2393 50.0632 50.8815C49.6494 50.5237 49.4389 49.9626 49.4389 49.205C49.4389 48.4474 49.6424 47.9284 50.0562 47.5777C50.4701 47.2339 51.1154 47.0586 51.9922 47.0586C52.869 47.0586 53.5214 47.2269 53.9282 47.5707C54.3351 47.9074 54.5455 48.4615 54.5455 49.2191V49.2192ZM51.9992 48.0127C51.5924 48.0127 51.2978 48.0688 51.1084 48.188C50.9189 48.3072 50.7997 48.5107 50.7576 48.8053H53.2268C53.2128 48.5247 53.1146 48.3213 52.9181 48.202C52.7217 48.0757 52.4201 48.0126 51.9992 48.0126V48.0127ZM47.2013 47.1919V48.2722C47.545 47.4655 48.1061 47.0587 48.8848 47.0587V48.3774C48.3166 48.3774 47.9027 48.4826 47.6432 48.693C47.3836 48.9034 47.2364 49.2752 47.2013 49.8154V51.2814H45.8966V47.1849H47.2013V47.1919ZM42.9644 47.0587C43.7009 47.0587 44.2411 47.234 44.5918 47.5847C44.9425 47.9354 45.1179 48.4826 45.1179 49.2262C45.1179 49.9697 44.9425 50.5309 44.5918 50.8886C44.2411 51.2463 43.7009 51.4217 42.9644 51.4217C42.0876 51.4217 41.4984 51.1412 41.1897 50.5799V52.9999L39.885 53V47.1919H41.1897V47.8864C41.4914 47.3392 42.0806 47.0657 42.9644 47.0657V47.0587ZM42.5506 50.4046C42.9995 50.4046 43.3221 50.3134 43.5186 50.131C43.715 49.9487 43.8132 49.654 43.8132 49.2402C43.8132 48.8263 43.715 48.5247 43.5256 48.3493C43.3362 48.1739 43.0136 48.0897 42.5646 48.0897C41.6247 48.0897 41.1477 48.4264 41.1477 49.0928V49.3524C41.1477 49.6821 41.2669 49.9416 41.5125 50.131C41.758 50.3204 42.1017 50.4116 42.5436 50.4116L42.5506 50.4046ZM37.5001 47.0587C38.0261 47.0587 38.4049 47.1849 38.6364 47.4444C38.8609 47.6969 38.9731 48.1319 38.9731 48.7492V51.2814H37.6614V48.8264C37.6614 48.5668 37.5983 48.3774 37.472 48.2582C37.3457 48.1389 37.1494 48.0758 36.8828 48.0758C36.2795 48.0758 35.9779 48.3774 35.9779 48.9877V51.2885L34.6732 51.2884V48.8334C34.6732 48.3283 34.4136 48.0828 33.8876 48.0828C33.2914 48.0828 32.9897 48.3914 32.9827 49.0157V51.2954H31.6779V47.1989H32.9826V47.9144C33.2702 47.3462 33.7753 47.0657 34.5048 47.0657C34.9116 47.0657 35.2203 47.1358 35.4377 47.2902C35.6551 47.4374 35.8095 47.6759 35.8936 47.9987C36.1742 47.3744 36.7074 47.0657 37.493 47.0657L37.5001 47.0587ZM30.8994 49.2192V49.5348H27.0974C27.1395 49.8785 27.2588 50.117 27.4551 50.2573C27.6516 50.3976 27.9602 50.4677 28.3881 50.4677C29.1176 50.4677 29.5174 50.3064 29.5876 49.9907H30.8222C30.731 50.9377 29.9174 51.4147 28.3671 51.4147C27.4833 51.4147 26.8309 51.2393 26.4171 50.8815C26.0032 50.5238 25.7928 49.9626 25.7928 49.205C25.7928 48.4474 25.9962 47.9284 26.4101 47.5777C26.8239 47.2339 27.4693 47.0586 28.3461 47.0586C29.2229 47.0586 29.8753 47.2269 30.2821 47.5707C30.6889 47.9074 30.8994 48.4615 30.8994 49.2191V49.2192ZM28.3531 48.0127C27.9462 48.0127 27.6516 48.0688 27.4622 48.188C27.2728 48.3072 27.1536 48.5107 27.1115 48.8053H29.5806C29.5736 48.5247 29.4684 48.3213 29.2719 48.202C29.0755 48.0827 28.7739 48.0126 28.353 48.0126L28.3531 48.0127ZM20.4616 47.0587C21.2192 47.0587 21.7734 47.1919 22.1381 47.4655C22.5029 47.7391 22.6783 48.1599 22.6783 48.7352V51.2814H21.3665V50.6291C21.0439 51.1552 20.5318 51.4147 19.8373 51.4147C19.2831 51.4147 18.8623 51.3095 18.5816 51.0921C18.3011 50.8747 18.1608 50.566 18.1608 50.1522C18.1608 49.2683 18.8552 48.8264 20.2371 48.8264C20.672 48.8264 21.0508 48.8684 21.3734 48.9456V48.7352C21.3734 48.4897 21.3033 48.3143 21.156 48.202C21.0087 48.0898 20.7842 48.0337 20.4686 48.0337C19.9214 48.0337 19.6268 48.1739 19.5847 48.4545L18.3853 48.4546C18.4344 47.5217 19.1289 47.0587 20.4686 47.0587H20.4616ZM20.2582 50.5028C20.5949 50.5028 20.8615 50.4327 21.0579 50.2924C21.2543 50.1521 21.3525 49.9487 21.3595 49.6821V49.6681C21.0859 49.5979 20.7422 49.5699 20.3284 49.5699C19.6971 49.5699 19.3814 49.7242 19.3814 50.0258C19.3814 50.3484 19.676 50.5098 20.2582 50.5098V50.5028ZM16.0004 47.0587C16.5264 47.0587 16.9052 47.1849 17.1367 47.4444C17.3612 47.6969 17.4734 48.1319 17.4734 48.7492V51.2814H16.1617V48.8264C16.1617 48.5668 16.0986 48.3774 15.9723 48.2582C15.846 48.1389 15.6496 48.0758 15.3831 48.0758C14.7798 48.0758 14.4782 48.3774 14.4782 48.9877V51.2885L13.1735 51.2884V48.8334C13.1735 48.3283 12.9139 48.0828 12.3879 48.0828C11.7916 48.0828 11.49 48.3914 11.483 49.0157V51.2954H10.1782V47.1989H11.4829V47.9144C11.7705 47.3462 12.2756 47.0657 13.0051 47.0657C13.4119 47.0657 13.7206 47.1358 13.938 47.2902C14.1554 47.4374 14.3098 47.6759 14.3939 47.9987C14.6745 47.3744 15.2076 47.0657 15.9933 47.0657L16.0004 47.0587Z" fill="white"/>
</g>
<defs>
<clipPath id="clip0_2943_1794">
<rect width="150" height="52.8059" fill="white" transform="translate(0 0.194145)"/>
</clipPath>
</defs>
</svg>
