<svg width="150" height="53" viewBox="0 0 150 53" fill="none" xmlns="http://www.w3.org/2000/svg">
<g clip-path="url(#clip0_2943_1743)">
<path d="M17.5365 0.271284C18.7711 0.271284 19.9916 0.474713 21.1911 0.87457V7.39114C20.6579 7.0895 19.8232 6.94221 18.6869 6.94221C15.0463 6.94221 13.2225 8.47843 13.2225 11.5508V12.7994H21.1911V19.4141H13.2225V39.2023H4.76293V19.4141H0V12.7994H4.76293V11.5508C4.76293 7.53843 5.745 4.66243 7.71607 2.90878C9.68714 1.14814 12.9629 0.271284 17.5365 0.271284ZM91.5614 19.4071H105.99V20.2068L91.358 32.0825V39.1953H116.912V32.5314H101.88V31.7318L116.912 19.9052V12.7924L91.5614 12.7924V19.4071ZM78.1776 12.8064H69.7531V39.2233L78.1776 39.2234V29.7466C78.4091 26.3025 79.784 23.6439 81.3833 22.1849C82.8283 20.8662 85.3816 19.4001 89.0572 19.4001V12.7924C84.0137 12.7924 80.4152 14.6934 78.1776 16.7346V12.7994L78.1776 12.8064ZM142.102 0.194141L133.172 32.5314L127.441 12.7924H119.43L125.168 32.5384H133.172L133.102 32.7839C133.102 32.7839 132.022 37.0699 126.95 38.5639C125.463 39.0059 122.356 39.1531 119.606 39.1812H116.912V45.8731H119.669C132.05 45.8521 136.911 44.8209 140.257 35.4214L150 0.194141L142.102 0.194141ZM67.2208 25.8465C67.2208 30.6866 65.867 34.2359 63.1664 36.4876C60.4657 38.7394 51.3257 39.8686 45.5527 39.8686C39.7797 39.8686 30.5345 38.7393 27.8199 36.4876C25.0982 34.2359 23.7444 30.6866 23.7444 25.8465C23.7444 21.0064 25.1052 17.5693 27.8199 15.3316C30.5415 13.094 39.7236 11.9716 45.5527 11.9716C51.3818 11.9716 60.4657 13.101 63.1664 15.3526C65.867 17.6044 67.2208 21.1046 67.2208 25.8465ZM58.8664 25.8465C58.8664 23.195 58.2351 21.3221 56.9795 20.2278C55.7169 19.1335 48.6391 18.5864 45.5597 18.5864C42.4803 18.5864 35.3394 19.1335 34.0628 20.2278C32.7861 21.3221 32.1478 23.1949 32.1478 25.8465C32.1478 28.4981 32.7861 30.5182 34.0628 31.6125C35.3394 32.7068 42.4382 33.2539 45.5597 33.2539C48.6812 33.2539 55.7169 32.6998 56.9795 31.5844C58.2421 30.4761 58.8664 28.5611 58.8664 25.8395V25.8465Z" fill="#252525"/>
<path d="M7.91226 49.4155V47.1919L9.21697 47.1919V51.2884H7.91226V50.5799C7.76497 50.8746 7.56154 51.092 7.30897 51.2183C7.0564 51.3446 6.73376 51.4147 6.34097 51.4147C5.76576 51.4147 5.3589 51.2884 5.1204 51.0359C4.8749 50.7764 4.75562 50.3415 4.75562 49.7312V47.1919H6.0604V49.6962C6.0604 50.1732 6.35504 50.4117 6.95126 50.4117C7.58254 50.4117 7.90526 50.0819 7.91226 49.4156V49.4155ZM100.287 47.0587C100.856 47.0587 101.262 47.1849 101.508 47.4444C101.753 47.704 101.873 48.1389 101.873 48.7422V51.2814H100.568V48.7772C100.568 48.3002 100.273 48.0617 99.6772 48.0617C99.0459 48.0617 98.7232 48.3914 98.7162 49.0578V51.2814H97.4115V47.1849H98.7162V47.8934C98.8634 47.5988 99.0669 47.3814 99.3195 47.2551C99.572 47.1218 99.8947 47.0587 100.294 47.0587H100.287ZM94.0023 51.4217C93.0904 51.4217 92.424 51.2464 91.9962 50.8957C91.5683 50.5449 91.3578 49.9908 91.3578 49.2332C91.3578 48.4757 91.5682 47.9425 91.9962 47.5918C92.424 47.2411 93.0904 47.0657 94.0023 47.0657C94.9142 47.0657 95.5666 47.2411 95.9874 47.5918C96.4083 47.9425 96.6187 48.4897 96.6187 49.2332C96.6187 49.9768 96.4083 50.5449 95.9874 50.8957C95.5666 51.2464 94.9002 51.4217 94.0023 51.4217ZM94.0023 50.3906C94.4863 50.3906 94.823 50.3064 95.0195 50.131C95.2159 49.9557 95.3141 49.661 95.3141 49.2332C95.3141 48.8053 95.2159 48.5247 95.0195 48.3563C94.823 48.1879 94.4863 48.0967 94.0023 48.0967C93.5183 48.0967 93.1746 48.1809 92.9712 48.3563C92.7677 48.5247 92.6695 48.8192 92.6695 49.2332C92.6695 49.6471 92.7677 49.9627 92.9712 50.138C93.1676 50.3064 93.5113 50.3976 94.0023 50.3976V50.3906ZM89.1482 47.0587C89.6743 47.0587 90.0531 47.1849 90.2846 47.4444C90.5091 47.6969 90.6213 48.1319 90.6213 48.7492V51.2814H89.3096V48.8264C89.3096 48.5668 89.2465 48.3774 89.1202 48.2582C88.9939 48.1389 88.7975 48.0758 88.531 48.0758C87.9277 48.0758 87.6261 48.3774 87.6261 48.9877V51.2885L86.3214 51.2884V48.8334C86.3214 48.3283 86.0618 48.0828 85.5357 48.0828C84.9395 48.0828 84.6379 48.3914 84.6309 49.0157V51.2954H83.3261V47.1989H84.6308V47.9144C84.9184 47.3462 85.4235 47.0657 86.153 47.0657C86.5598 47.0657 86.8685 47.1358 87.0859 47.2902C87.3033 47.4374 87.4577 47.6759 87.5418 47.9987C87.8224 47.3744 88.3555 47.0657 89.1412 47.0657L89.1482 47.0587ZM79.9311 51.4217C79.0192 51.4217 78.3528 51.2464 77.9249 50.8957C77.4971 50.5449 77.2866 49.9908 77.2866 49.2332C77.2866 48.4757 77.497 47.9425 77.9249 47.5918C78.3528 47.2411 79.0192 47.0657 79.9311 47.0657C80.843 47.0657 81.4954 47.2411 81.9162 47.5918C82.3371 47.9425 82.5475 48.4897 82.5475 49.2332C82.5475 49.9768 82.3371 50.5449 81.9162 50.8957C81.4954 51.2464 80.829 51.4217 79.9311 51.4217ZM79.9311 50.3906C80.4151 50.3906 80.7518 50.3064 80.9482 50.131C81.1447 49.9557 81.2429 49.661 81.2429 49.2332C81.2429 48.8053 81.1447 48.5247 80.9482 48.3563C80.7518 48.1879 80.4151 48.0967 79.9311 48.0967C79.4471 48.0967 79.1034 48.1809 78.9 48.3563C78.6965 48.5247 78.5983 48.8192 78.5983 49.2332C78.5983 49.6471 78.6965 49.9627 78.9 50.138C79.0964 50.3064 79.4401 50.3976 79.9311 50.3976V50.3906ZM75.0489 47.1919V48.2722C75.3926 47.4655 75.9537 47.0587 76.7324 47.0587V48.3774C76.1642 48.3774 75.7503 48.4826 75.4908 48.693C75.2312 48.9034 75.084 49.2752 75.0489 49.8154V51.2814H73.7442V47.1849H75.0489V47.1919ZM69.1497 51.2884H67.8099V45.8732H70.3C72.1098 45.8732 73.0147 46.5325 73.0147 47.8583C73.0147 49.1841 72.1098 49.8855 70.3 49.8855H69.1497V51.2954V51.2884ZM69.1497 46.9674V48.7772H70.307C70.784 48.7772 71.1277 48.7001 71.3452 48.5527C71.5626 48.4054 71.6749 48.1739 71.6749 47.8513C71.6749 47.5287 71.5627 47.3252 71.3452 47.1779C71.1277 47.0376 70.784 46.9674 70.307 46.9674H69.1497ZM62.2473 47.0587C63.0049 47.0587 63.559 47.1919 63.9238 47.4655C64.2815 47.7391 64.464 48.1599 64.464 48.7352V51.2814H63.1522V50.6291C62.8295 51.1552 62.3175 51.4147 61.623 51.4147C61.0688 51.4147 60.648 51.3095 60.3673 51.0921C60.0867 50.8747 59.9465 50.566 59.9465 50.1522C59.9465 49.2683 60.6409 48.8264 62.0227 48.8264C62.4577 48.8264 62.8365 48.8684 63.1591 48.9456V48.7352C63.1591 48.4897 63.089 48.3143 62.9417 48.202C62.7944 48.0897 62.5699 48.0337 62.2612 48.0337C61.7141 48.0337 61.4125 48.1739 61.3774 48.4545L60.178 48.4546C60.227 47.5217 60.9215 47.0587 62.2613 47.0587H62.2473ZM62.0439 50.5028C62.3806 50.5028 62.6472 50.4327 62.8435 50.2924C63.04 50.1521 63.1382 49.9487 63.1452 49.6821V49.6681C62.8716 49.5979 62.5279 49.5699 62.114 49.5699C61.4827 49.5699 61.167 49.7242 61.167 50.0258C61.167 50.3484 61.4617 50.5098 62.0439 50.5098V50.5028ZM57.2248 51.4217C55.878 51.4217 55.1836 50.9517 55.1345 50.0118H56.327C56.355 50.3415 56.6847 50.5028 57.309 50.5028C57.8492 50.5028 58.1157 50.3625 58.1157 50.0889C58.1157 49.9977 58.0876 49.9276 58.0315 49.8785C57.9754 49.8294 57.8842 49.7944 57.751 49.7733L56.5094 49.5418C56.0885 49.4647 55.7799 49.3314 55.5835 49.156C55.387 48.9737 55.2888 48.7282 55.2888 48.4195C55.2888 47.9566 55.4572 47.6199 55.7869 47.3954C56.1166 47.1709 56.6427 47.0657 57.3512 47.0657C58.5927 47.0657 59.2451 47.5146 59.3082 48.4124H58.1297C58.1017 48.2582 58.0175 48.1459 57.8982 48.0757C57.772 48.0056 57.5826 47.9775 57.33 47.9775C56.825 47.9775 56.5725 48.1038 56.5725 48.3563C56.5725 48.4966 56.6987 48.5878 56.9512 48.6369L58.1577 48.8614C58.5856 48.9385 58.9083 49.0718 59.1117 49.2612C59.3152 49.4507 59.4204 49.7032 59.4204 50.0258C59.4204 50.5028 59.245 50.8535 58.8943 51.085C58.5436 51.3165 57.9895 51.4287 57.2389 51.4287L57.2248 51.4217ZM54.5452 49.2192V49.5348H50.7434C50.7855 49.8785 50.9047 50.117 51.1011 50.2573C51.2975 50.3976 51.6062 50.4677 52.034 50.4677C52.7635 50.4677 53.1634 50.3064 53.2335 49.9907H54.4681C54.3769 50.9377 53.5632 51.4147 52.013 51.4147C51.1292 51.4147 50.4768 51.2393 50.063 50.8815C49.6491 50.5237 49.4387 49.9626 49.4387 49.205C49.4387 48.4474 49.6421 47.9284 50.056 47.5777C50.4698 47.2339 51.1152 47.0586 51.992 47.0586C52.8687 47.0586 53.5212 47.2269 53.928 47.5707C54.3348 47.9074 54.5452 48.4615 54.5452 49.2191V49.2192ZM51.999 48.0127C51.5921 48.0127 51.2975 48.0688 51.1081 48.188C50.9187 48.3072 50.7995 48.5107 50.7574 48.8053H53.2265C53.2125 48.5247 53.1143 48.3213 52.9179 48.202C52.7215 48.0757 52.4198 48.0126 51.999 48.0126V48.0127ZM47.201 47.1919V48.2722C47.5447 47.4655 48.1059 47.0587 48.8845 47.0587V48.3774C48.3163 48.3774 47.9025 48.4826 47.643 48.693C47.3834 48.9034 47.2361 49.2752 47.201 49.8154V51.2814H45.8963V47.1849H47.201V47.1919ZM42.9642 47.0587C43.7007 47.0587 44.2408 47.234 44.5915 47.5847C44.9422 47.9354 45.1176 48.4826 45.1176 49.2262C45.1176 49.9697 44.9422 50.5309 44.5915 50.8886C44.2408 51.2463 43.7007 51.4217 42.9642 51.4217C42.0873 51.4217 41.4981 51.1412 41.1895 50.5799V52.9999L39.8848 53V47.1919H41.1895V47.8864C41.4911 47.3392 42.0803 47.0657 42.9642 47.0657V47.0587ZM42.5503 50.4046C42.9992 50.4046 43.3219 50.3134 43.5183 50.131C43.7147 49.9487 43.813 49.654 43.813 49.2402C43.813 48.8263 43.7147 48.5247 43.5254 48.3493C43.336 48.1739 43.0133 48.0897 42.5644 48.0897C41.6245 48.0897 41.1475 48.4264 41.1475 49.0928V49.3524C41.1475 49.6821 41.2667 49.9416 41.5122 50.131C41.7578 50.3204 42.1015 50.4116 42.5434 50.4116L42.5503 50.4046ZM37.4998 47.0587C38.0259 47.0587 38.4047 47.1849 38.6362 47.4444C38.8607 47.6969 38.9729 48.1319 38.9729 48.7492V51.2814H37.6612V48.8264C37.6612 48.5668 37.598 48.3774 37.4717 48.2582C37.3455 48.1389 37.1491 48.0758 36.8825 48.0758C36.2793 48.0758 35.9777 48.3774 35.9777 48.9877V51.2885L34.673 51.2884V48.8334C34.673 48.3283 34.4134 48.0828 33.8873 48.0828C33.2911 48.0828 32.9895 48.3914 32.9825 49.0157V51.2954H31.6777V47.1989H32.9824V47.9144C33.27 47.3462 33.775 47.0657 34.5045 47.0657C34.9114 47.0657 35.22 47.1358 35.4375 47.2902C35.6549 47.4374 35.8092 47.6759 35.8934 47.9987C36.174 47.3744 36.7071 47.0657 37.4927 47.0657L37.4998 47.0587ZM30.8991 49.2192V49.5348H27.0972C27.1393 49.8785 27.2585 50.117 27.4549 50.2573C27.6513 50.3976 27.96 50.4677 28.3878 50.4677C29.1173 50.4677 29.5172 50.3064 29.5873 49.9907H30.822C30.7308 50.9377 29.9171 51.4147 28.3669 51.4147C27.483 51.4147 26.8307 51.2393 26.4168 50.8815C26.003 50.5238 25.7925 49.9626 25.7925 49.205C25.7925 48.4474 25.996 47.9284 26.4098 47.5777C26.8237 47.2339 27.469 47.0586 28.3458 47.0586C29.2226 47.0586 29.875 47.2269 30.2818 47.5707C30.6887 47.9074 30.8991 48.4615 30.8991 49.2191V49.2192ZM28.3528 48.0127C27.946 48.0127 27.6514 48.0688 27.462 48.188C27.2725 48.3072 27.1533 48.5107 27.1113 48.8053H29.5803C29.5733 48.5247 29.4681 48.3213 29.2717 48.202C29.0753 48.0827 28.7736 48.0126 28.3528 48.0126L28.3528 48.0127ZM20.4614 47.0587C21.219 47.0587 21.7731 47.1919 22.1379 47.4655C22.5027 47.7391 22.678 48.1599 22.678 48.7352V51.2814H21.3663V50.6291C21.0436 51.1552 20.5315 51.4147 19.837 51.4147C19.2829 51.4147 18.862 51.3095 18.5814 51.0921C18.3008 50.8747 18.1605 50.566 18.1605 50.1522C18.1605 49.2683 18.855 48.8264 20.2368 48.8264C20.6718 48.8264 21.0505 48.8684 21.3732 48.9456V48.7352C21.3732 48.4897 21.303 48.3143 21.1558 48.202C21.0085 48.0898 20.784 48.0337 20.4683 48.0337C19.9212 48.0337 19.6265 48.1739 19.5845 48.4545L18.385 48.4546C18.4341 47.5217 19.1286 47.0587 20.4684 47.0587H20.4614ZM20.258 50.5028C20.5947 50.5028 20.8613 50.4327 21.0576 50.2924C21.254 50.1521 21.3523 49.9487 21.3593 49.6821V49.6681C21.0857 49.5979 20.742 49.5699 20.3281 49.5699C19.6968 49.5699 19.3811 49.7242 19.3811 50.0258C19.3811 50.3484 19.6758 50.5098 20.258 50.5098V50.5028ZM16.0001 47.0587C16.5262 47.0587 16.905 47.1849 17.1365 47.4444C17.361 47.6969 17.4732 48.1319 17.4732 48.7492V51.2814H16.1615V48.8264C16.1615 48.5668 16.0983 48.3774 15.972 48.2582C15.8458 48.1389 15.6494 48.0758 15.3828 48.0758C14.7795 48.0758 14.478 48.3774 14.478 48.9877V51.2885L13.1733 51.2884V48.8334C13.1733 48.3283 12.9137 48.0828 12.3876 48.0828C11.7914 48.0828 11.4898 48.3914 11.4828 49.0157V51.2954H10.178V47.1989H11.4827V47.9144C11.7703 47.3462 12.2753 47.0657 13.0048 47.0657C13.4117 47.0657 13.7203 47.1358 13.9378 47.2902C14.1552 47.4374 14.3095 47.6759 14.3937 47.9987C14.6743 47.3744 15.2074 47.0657 15.993 47.0657L16.0001 47.0587Z" fill="#252525"/>
</g>
<defs>
<clipPath id="clip0_2943_1743">
<rect width="150" height="52.8059" fill="white" transform="translate(0 0.194141)"/>
</clipPath>
</defs>
</svg>
